<?xml version="1.0" encoding="utf-8"?>
<!DOCTYPE svg PUBLIC "-//W3C//DTD SVG 1.0//EN" "http://www.w3.org/TR/2001/REC-SVG-20010904/DTD/svg10.dtd">
<svg version="1.0" xmlns="http://www.w3.org/2000/svg" width="1206px" height="320px" viewBox="0 0 1206 320" preserveAspectRatio="xMidYMid meet">
 <g fill="#121518">
  <path d="M404 251.5 l0 -13.5 -8 0 c-6.4 0 -8 -0.3 -8 -1.5 0 -1.3 2.8 -1.5 19 -1.5 16.2 0 19 0.2 19 1.5 0 1.2 -1.6 1.5 -8 1.5 l-8 0 0 13.5 0 13.5 -3 0 -3 0 0 -13.5z"/>
  <path d="M424.6 263.8 c0.4 -0.7 4.5 -7.5 9.2 -15 8 -12.9 8.7 -13.8 11.6 -13.8 3.1 0 5.5 3.1 20.9 27.1 l1.9 2.9 -3 0 c-2.5 0 -3.5 -0.8 -5.9 -4.5 l-2.8 -4.5 -11 0 -11 0 -2.5 4.5 c-2 3.7 -3 4.5 -5.3 4.5 -2 0 -2.6 -0.4 -2.1 -1.2z m29.4 -11.3 c0 -0.3 -1.9 -3.7 -4.2 -7.5 -3.8 -6.6 -5.8 -8.5 -5.8 -5.9 0 0.6 -1.6 3.7 -3.5 6.9 -1.9 3.2 -3.5 6 -3.5 6.4 0 0.3 3.8 0.6 8.5 0.6 4.7 0 8.5 -0.2 8.5 -0.5z"/>
  <path d="M474 250 l0 -15 3 0 3 0 0 13.5 0 13.5 12 0 c10 0 12 0.3 12 1.5 0 1.3 -2.3 1.5 -15 1.5 l-15 0 0 -15z"/>
  <path d="M512 250 l0 -15 3 0 3 0 0 13.5 0 13.5 12 0 c10 0 12 0.3 12 1.5 0 1.3 -2.3 1.5 -15 1.5 l-15 0 0 -15z"/>
  <path d="M552 250 l0 -15 17.5 0 c14.9 0 17.5 0.2 17.5 1.5 0 1.3 -2.3 1.5 -14.5 1.5 l-14.5 0 0 5 0 5 13.5 0 c11.3 0 13.5 0.2 13.5 1.5 0 1.3 -2.2 1.5 -13.5 1.5 l-13.5 0 0 5.5 0 5.5 15 0 c12.7 0 15 0.2 15 1.5 0 1.3 -2.7 1.5 -18 1.5 l-18 0 0 -15z"/>
  <path d="M598 249.9 l0 -15.1 15.3 0.4 c16.8 0.4 21.1 1.7 22.3 6.4 1.2 4.5 -1 7.2 -7.2 9 l-5.7 1.6 3.6 1.7 c1.9 0.9 5.8 3.7 8.7 6.4 l5.2 4.7 -3.4 0 c-2.3 0 -4.2 -0.7 -5.4 -2.1 -1 -1.2 -4.5 -4.1 -7.7 -6.5 -5.6 -4.2 -6.2 -4.4 -12.8 -4.4 l-6.9 0 0 6.5 0 6.5 -3 0 -3 0 0 -15.1z m30.5 -3.3 c2.9 -2.9 2.4 -5.9 -1.1 -7.5 -1.4 -0.6 -7.2 -1.1 -12.9 -1.1 l-10.5 0 0 5.5 0 5.5 11 0 c10.4 0 11.2 -0.2 13.5 -2.4z"/>
  <path d="M667 250 l0 -15.3 13.8 0.5 c11.4 0.4 14.4 0.8 17.8 2.6 7.4 3.8 9.8 10.2 6.6 17.4 -1.6 3.6 -2.9 5 -6.8 6.9 -4.2 2 -6.7 2.4 -18.1 2.7 l-13.3 0.4 0 -15.2z m27.6 10.5 c5.7 -2.3 8.1 -10.4 4.9 -16.5 -2.5 -4.8 -6.1 -6 -17.5 -6 l-10 0 0 12 0 12 9.5 0 c6.1 0 10.8 -0.5 13.1 -1.5z"/>
  <path d="M717 250 l0 -15 17.5 0 c14.9 0 17.5 0.2 17.5 1.5 0 1.3 -2.3 1.5 -14.5 1.5 l-14.5 0 0 5 0 5 13.5 0 c11.3 0 13.5 0.2 13.5 1.5 0 1.3 -2.2 1.5 -13.5 1.5 l-13.5 0 0 5.5 0 5.5 15 0 c12.7 0 15 0.2 15 1.5 0 1.3 -2.7 1.5 -18 1.5 l-18 0 0 -15z"/>
  <path d="M783 250 l0 -15 3 0 3 0 0 15 0 15 -3 0 -3 0 0 -15z"/>
  <path d="M801 250 l0 -15 4.3 0 4.3 0 7 12.5 c3.8 6.9 7.1 12.5 7.4 12.5 0.4 0 3.7 -5.6 7.6 -12.5 l6.9 -12.5 4.3 0 4.2 0 0 15 0 15 -3 0 -2.9 0 -0.3 -13 -0.3 -13 -7.1 12.8 c-9.7 17.4 -9.9 17.4 -18.9 1 -3.7 -6.8 -7.1 -12.7 -7.6 -13.3 -0.5 -0.5 -0.9 4.3 -0.9 12.3 l0 13.2 -2.5 0 -2.5 0 0 -15z"/>
  <path d="M859 249.9 l0 -15.1 14.3 0.4 c10.9 0.3 14.9 0.8 17.4 2.1 4.2 2.2 5.6 4.8 4.3 8.1 -1.6 4.3 -6.3 5.9 -19.2 6.4 l-11.8 0.5 0 6.3 c0 6.2 -0.1 6.4 -2.5 6.4 l-2.5 0 0 -15.1z m29.6 -3.3 c1.9 -2.7 1.8 -4.2 -0.6 -6.6 -1.8 -1.8 -3.3 -2 -13 -2 l-11 0 0 5.6 0 5.6 11.6 -0.4 c10.1 -0.3 11.7 -0.6 13 -2.2z"/>
  <path d="M905 249.9 l0 -15.1 15.3 0.4 c16.8 0.4 21.1 1.7 22.3 6.4 1.2 4.5 -1 7.2 -7.2 9 l-5.7 1.6 3.6 1.7 c1.9 0.9 5.8 3.7 8.7 6.4 l5.2 4.7 -3.4 0 c-2.3 0 -4.2 -0.7 -5.4 -2.1 -1 -1.2 -4.5 -4.1 -7.7 -6.5 -5.6 -4.2 -6.2 -4.4 -12.8 -4.4 l-6.9 0 0 6.5 0 6.5 -3 0 -3 0 0 -15.1z m30.5 -3.3 c2.9 -2.9 2.4 -5.9 -1.1 -7.5 -1.4 -0.6 -7.2 -1.1 -12.9 -1.1 l-10.5 0 0 5.5 0 5.5 11 0 c10.4 0 11.2 -0.2 13.5 -2.4z"/>
  <path d="M955 250 l0 -15 17.5 0 c14.9 0 17.5 0.2 17.5 1.5 0 1.3 -2.3 1.5 -14.5 1.5 l-14.5 0 0 5 0 5 13.5 0 c11.3 0 13.5 0.2 13.5 1.5 0 1.3 -2.2 1.5 -13.5 1.5 l-13.5 0 0 5.5 0 5.5 15 0 c12.7 0 15 0.2 15 1.5 0 1.3 -2.7 1.5 -18 1.5 l-18 0 0 -15z"/>
  <path d="M1011 264.1 c-6.9 -1.5 -12 -5.3 -12 -9 0 -2.3 4.7 -1.1 5.8 1.5 1.6 3.4 6.9 5.4 14.2 5.4 6.2 0 11.3 -1.8 12.3 -4.3 1.2 -3.3 -2.1 -4.9 -13.9 -6.7 -13.6 -2.1 -18.9 -5.3 -16.4 -10.1 2.4 -4.4 14 -6.9 23.3 -4.9 5.9 1.2 10.7 4.2 10.7 6.6 0 2.4 -3.7 1.6 -6.8 -1.6 -2.8 -2.8 -3.6 -3 -10.4 -3 -7.5 0 -11.8 1.6 -11.8 4.4 0 2.5 2.9 3.7 12.2 5.2 5.1 0.8 10.7 1.9 12.4 2.5 7.6 2.4 8.3 8.4 1.4 11.9 -4.3 2.2 -15.5 3.3 -21 2.1z"/>
  <path d="M1048 250 l0 -15 3 0 3 0 0 15 0 15 -3 0 -3 0 0 -15z"/>
  <path d="M1079.3 264 c-13.5 -2.9 -19.5 -13.2 -12.3 -21.4 4.2 -4.8 10.8 -7.1 20 -7.1 9.2 0 15.8 2.3 20 7.1 5.9 6.7 2.7 15.9 -6.9 19.8 -5 1.9 -15.3 2.8 -20.8 1.6z m17.1 -3.4 c5.4 -2.2 7.6 -5.3 7.6 -10.6 0 -5.3 -2.2 -8.4 -7.6 -10.6 -4.5 -1.9 -14.4 -1.8 -19.3 0.2 -5 2 -7.1 5.1 -7.1 10.7 0 4.9 2.3 8 7.4 10.3 4.1 1.7 14.8 1.8 19 0z"/>
  <path d="M1120 250 l0 -15 2.8 0 c2 0.1 5.8 3 15.7 12 l13 11.9 0.3 -12 0.3 -11.9 2.9 0 3 0 0 15 0 15 -2.9 0 c-2.3 0 -5.6 -2.5 -16.3 -12.1 l-13.3 -12.2 -0.3 12.2 -0.3 12.1 -2.4 0 -2.5 0 0 -15z"/>
  <path d="M1085 230 c1.6 -2.3 2.9 -3 5.3 -3 l3.2 0.1 -3.5 2.9 c-1.9 1.6 -4.3 3 -5.3 3 -1.7 0 -1.7 -0.2 0.3 -3z"/>
  <path d="M645 223.5 c0 -0.3 28.2 -31.8 62.6 -70 l62.6 -69.5 14.2 0 14.1 0 13.9 58.5 c7.7 32.2 14.3 58.2 14.7 57.8 0.8 -1 30.9 -91.5 30.9 -93.1 0 -0.9 -6.2 -1.2 -24.3 -1.2 l-24.3 0 -1.9 -9.8 c-1 -5.3 -2 -10.3 -2.2 -10.9 -0.4 -1 11.5 -1.3 57.7 -1.3 55 0 58.2 0.1 57.7 1.8 -0.2 0.9 -1.7 5.9 -3.2 10.9 l-2.8 9.2 -13.5 0.3 -13.5 0.3 -17.6 52.8 -17.6 52.7 -28.1 0 -28.1 0 -3 -13.7 -2.9 -13.8 -41 -0.2 -40.9 -0.2 -17.9 19.9 -17.9 20 -13.8 0 c-7.7 0 -13.9 -0.2 -13.9 -0.5z m136.3 -84.7 c-2.4 -12.3 -4.6 -24 -4.9 -26 -0.4 -2.1 -1 -3.8 -1.4 -3.8 -0.8 0 -44.3 49.5 -44.8 51.1 -0.2 0.5 11.3 0.9 27.6 0.9 l27.9 0 -4.4 -22.2z"/>
  <path d="M401.7 210.6 c-2.7 -0.7 -6.1 -2.5 -7.5 -4 -2.4 -2.4 -2.7 -3.4 -2.6 -9.4 0 -5.8 1.8 -12.1 12.8 -45.7 14 -42.6 17.8 -52 23.4 -57.8 9.3 -9.6 11.3 -9.9 77.7 -9.5 51.5 0.3 55.2 0.4 58.8 2.2 8.2 4.1 8.5 11.1 1.5 32.6 l-4.4 13.5 -14.2 0.3 c-7.8 0.1 -14.2 0.1 -14.2 -0.1 0 -0.1 1.8 -5.7 4 -12.2 2.2 -6.5 4 -12.5 4 -13.2 0 -1 -9 -1.3 -46.3 -1.3 l-46.3 0 -13.2 40.3 c-7.3 22.2 -13.2 40.7 -13.2 41 0 0.4 20.9 0.7 46.4 0.7 l46.4 0 4.6 -13.8 c2.5 -7.5 4.6 -14 4.6 -14.5 0 -0.4 -10.8 -0.7 -24.1 -0.7 -18.9 0 -24 -0.3 -23.7 -1.2 0.3 -0.7 2 -5.7 3.7 -11 l3.3 -9.8 38.3 0 38.3 0 -7.9 24.3 c-9.4 28.7 -13.2 37 -19.5 42.6 -8.8 7.7 -6.9 7.5 -69.9 7.8 -44 0.2 -57 -0.1 -60.8 -1.1z"/>
  <path d="M543.5 209.8 c0.3 -1.3 9.8 -30 20.9 -63.8 l20.4 -61.5 60.3 0 c55.7 0 60.7 0.1 63.9 1.8 4.5 2.2 7 6.4 7 11.7 0 5.6 -13.1 45.2 -16.9 51.3 -3.7 5.7 -9.8 10.2 -16.5 12.3 -2.8 0.8 -11 1.8 -18.3 2.1 -7.3 0.3 -13.3 0.8 -13.3 1 0 0.2 4.2 5.6 9.4 12.1 l9.4 11.7 -5.8 6.5 c-3.2 3.6 -7.8 8.4 -10.2 10.7 l-4.3 4.1 -16.5 -22.6 -16.6 -22.7 -14.7 0 -14.8 0 -7.8 23.5 -7.7 23.5 -14.2 0.3 -14.3 0.3 0.6 -2.3z m125.6 -68.8 c5.3 -1.5 7.6 -4.6 11.4 -16 4 -12 4.4 -16.4 1.6 -18 -1.3 -0.6 -15.4 -1 -39 -1 l-36.9 0 -5.6 16.8 c-3.1 9.2 -5.6 17.3 -5.6 18 0 1.5 68.5 1.8 74.1 0.2z"/>
  <path d="M889.4 201.8 c1.8 -5.7 11.3 -34.5 21.1 -64 l17.8 -53.8 50.9 0 50.9 0 6.4 10 c3.6 5.5 6.5 10.2 6.5 10.5 0 0.3 -20.9 0.5 -46.4 0.5 l-46.4 0 -4.1 13 c-2.3 7.1 -4.4 13.7 -4.7 14.5 -0.5 1.3 2.9 1.5 28.6 1.5 27.4 0 29.2 0.1 28.8 1.8 -0.3 0.9 -1.8 5.9 -3.4 10.9 l-2.9 9.3 -29.5 0 -29.6 0 -4.8 14.8 c-2.7 8.1 -5.1 15.3 -5.3 15.9 -0.4 1 9.6 1.3 46.6 1.5 l47.2 0.3 -14.2 11.8 -14.1 11.7 -51.3 0 -51.3 0 3.2 -10.2z"/>
  <path d="M1000.7 207.2 c8.6 -7.1 73.5 -59.6 74.7 -60.4 0.5 -0.3 -7.7 -13.8 -18.6 -30.5 -10.7 -16.4 -19.8 -30.4 -20.2 -31.1 -0.6 -1 3.2 -1.2 18.5 -1 l19.2 0.3 12.7 20.9 c6.9 11.6 13.1 21.1 13.6 21.3 0.5 0.1 16.2 -13 34.9 -29.2 l34 -29.4 17.5 -0.1 17.5 0 -2.5 2.4 c-1.4 1.2 -21.5 18.4 -44.8 38.1 -26 22 -42.1 36.3 -41.8 37.1 0.3 0.7 9.9 15.9 21.5 33.8 l20.9 32.6 -19.7 0 -19.7 0 -14.1 -24 -14.1 -24.1 -29.5 24.1 -29.6 24 -18.1 0 -18.1 0 5.8 -4.8z"/>
 </g>
 <g fill="#f8ef13">
  <path d="M40.8 131.8 c0.8 -0.8 1.2 -4.9 1.2 -11.7 0 -58.1 34 -96 86 -96.1 5.8 0 14.3 0.7 18.9 1.5 11.9 2.1 29.1 7.5 29.1 9.2 0 0.7 -2.8 4.6 -6.1 8.6 -11.9 14 -23.5 33.5 -30.4 51.3 l-2.7 7.2 -6.7 0.7 c-9.7 0.9 -29.7 5.1 -39.3 8.1 -11.5 3.6 -27.7 11 -37.6 17.2 -4.6 2.9 -9.5 5.2 -11 5.2 -2 0 -2.3 -0.3 -1.4 -1.2z"/>
 </g>
 <g fill="#b076b2">
  <path d="M211 308.5 l0 -3.5 7.5 0 7.5 0 0 3.5 0 3.5 -7.5 0 -7.5 0 0 -3.5z"/>
  <path d="M196 309.2 c-6.4 -1.7 -6.5 -1.7 -6.8 -5.4 -0.3 -3.6 -0.2 -3.8 2.6 -3.8 1.6 0 4.2 0.6 5.7 1.4 1.5 0.8 5 1.7 7.6 2.1 4.8 0.7 4.9 0.8 4.9 4.1 0 3.3 -0.1 3.4 -3.7 3.3 -2.1 0 -6.7 -0.8 -10.3 -1.7z"/>
  <path d="M227 307.8 c0 -3.4 0.1 -3.5 5.8 -4.6 9.7 -2 15.2 -3.6 15.2 -4.4 0 -0.5 1.6 -0.8 3.6 -0.8 2.4 0 3.4 0.4 3.2 1.3 -0.4 1.2 -19.9 10 -25 11.2 -2.6 0.7 -2.8 0.5 -2.8 -2.7z"/>
 </g>
 <g fill="#1babe2">
  <path d="M203.5 310.5 c-0.5 -0.2 -3.6 -0.9 -6.7 -1.5 -5.7 -1.1 -5.8 -1.2 -5.8 -4.7 l0 -3.5 4.3 0.5 c2.3 0.3 7.5 1.1 11.5 1.8 l7.2 1.3 0 3.3 c0 3.3 0 3.3 -4.7 3.2 -2.7 0 -5.2 -0.2 -5.8 -0.4z"/>
  <path d="M223 307.6 c0 -3.3 0.1 -3.3 5.5 -4 7 -0.8 12.8 -2.7 24.4 -8.2 8.5 -4 15.1 -5.6 15.1 -3.6 0 0.9 -1.8 2.1 -12.5 7.7 -4.7 2.5 -8.5 4.3 -8.5 3.9 0 -0.4 -0.6 -0.1 -1.3 0.5 -0.8 0.6 -1.7 0.8 -2 0.4 -0.4 -0.3 -0.7 -0.1 -0.7 0.6 0 0.8 -0.6 1.1 -1.6 0.7 -0.8 -0.3 -1.3 -0.2 -1 0.2 0.7 1.1 -11 5.2 -14.6 5.2 -2.5 0 -2.8 -0.4 -2.8 -3.4z"/>
  <path d="M309 244 c0 -1.7 1 -5.9 2.1 -9.3 3.3 -9.6 3.7 -25 1 -35.7 -3.8 -15 -11 -27.9 -23.8 -42.7 -4.8 -5.4 -7.3 -9.3 -8.8 -13.7 -14.3 -40.5 -51 -79.5 -94.7 -100.5 -8.3 -4 -11.8 -6.1 -11.8 -7.3 0 -1 0.5 -1.8 1.1 -1.8 0.6 0 3.9 -2.6 7.3 -5.7 20.9 -19.4 49.4 -29.7 73 -26.4 47.7 6.7 81.2 53.1 86.8 119.9 3.2 39 -7 84.9 -26.4 119 -2.3 3.9 -4.5 7.2 -5 7.2 -0.4 0 -0.8 -1.4 -0.8 -3z"/>
 </g>
 <g fill="#eb088c">
  <path d="M144 319 c-44.8 -5.4 -83.2 -22 -109.6 -47.3 -11.3 -10.8 -17.9 -19.3 -23.8 -30.7 -6.8 -13.1 -8.7 -20.5 -9.3 -35 -0.5 -10.7 -0.2 -13.9 1.6 -21 5 -19.9 15.5 -35.3 34.7 -51.1 l7.1 -5.8 1.2 8.2 c5.3 35.4 21.5 70.4 47 101.7 23 28.3 47.5 47.9 72 57.9 7.5 3 10 3.5 19.1 3.9 5.8 0.2 11 0.8 11.5 1.2 1.6 1.3 8.9 3 16.3 3.9 8.5 1 19.5 -0.3 29.1 -3.5 4.1 -1.4 8.6 -2.3 10 -2.1 2.6 0.4 2.6 0.4 0.4 1.2 -1.3 0.4 -2 1.1 -1.7 1.6 0.3 0.5 -0.3 0.6 -1.2 0.2 -1.3 -0.5 -1.5 -0.3 -0.9 0.7 0.5 0.9 0.4 1.1 -0.4 0.6 -1.4 -0.9 -5.3 0.2 -4.6 1.4 1.1 1.9 -24.7 9.6 -42 12.6 -10.7 1.8 -45.6 2.7 -56.5 1.4z m77.3 -10.7 c-1.3 -0.2 -3.5 -0.2 -5 0 -1.6 0.2 -0.5 0.4 2.2 0.4 2.8 0 4 -0.2 2.8 -0.4z m-11.5 -1 c-1 -0.2 -2.6 -0.2 -3.5 0 -1 0.3 -0.2 0.5 1.7 0.5 1.9 0 2.7 -0.2 1.8 -0.5z m21 0 c-1 -0.2 -2.6 -0.2 -3.5 0 -1 0.3 -0.2 0.5 1.7 0.5 1.9 0 2.7 -0.2 1.8 -0.5z m-31.9 -1.7 c-0.2 -0.1 -1.9 -0.8 -3.6 -1.4 -3.7 -1.2 -4.5 -0.6 -1 0.8 2.2 0.9 5.4 1.3 4.6 0.6z"/>
 </g>
 <g fill="#ec2028">
  <path d="M195.6 304.3 c-0.4 -0.4 -6.2 -1 -12.9 -1.3 -10.8 -0.6 -13.2 -1 -20.8 -4.1 -24.4 -9.9 -48.9 -29.6 -72 -57.9 -26.5 -32.4 -43.3 -69.8 -47.5 -105.2 l-0.7 -5.7 6.4 -4.1 c9.3 -5.9 25.6 -13.6 37.2 -17.5 10.8 -3.6 30.8 -7.9 41.9 -9 4.3 -0.5 6.9 -1.2 7.2 -2.1 0.3 -0.8 1 -1.4 1.6 -1.4 1.8 0 1 6.3 -2 16 -5.5 17.3 -10 45.1 -10 61.5 0 15.9 3.5 37.7 8.7 53.4 3.6 11 13.4 30.6 19.2 38.2 10.6 13.9 26.8 27 40.3 32.5 4.1 1.6 4.8 2.3 4.8 4.7 0 2.8 -0.2 3.2 -1.4 2z"/>
 </g>
 <g fill="#2d57a6">
  <path d="M204.5 306.5 c-6.7 -1.2 -13.1 -3.3 -11 -3.5 0.6 0 -1.3 -1.1 -4.1 -2.3 -14.7 -6.4 -29.8 -18.6 -40.5 -32.6 -5.8 -7.6 -15.6 -27.2 -19.2 -38.2 -12 -36.6 -11.3 -80.1 1.8 -122.8 1.9 -6.3 3.7 -11.6 3.9 -11.8 0.2 -0.2 8.8 0.1 19.2 0.7 27.7 1.5 49.3 5.3 71 12.5 26.2 8.8 58.4 28.1 58.4 35.1 0 0.9 3.1 5 6.9 9.3 18.5 21 26.1 39 26.1 61.5 0 18.4 -3.2 28.9 -13.2 43.3 -6.4 9.3 -19.9 23.2 -28.8 29.7 -12.1 8.9 -29.9 16.9 -42.9 19.1 -10 1.8 -18.1 1.8 -27.6 0z"/>
 </g>
 <g fill="#0ca15b">
  <path d="M278.5 141.8 c-17.8 -15.2 -47.4 -29.4 -75.4 -35.9 -18.2 -4.2 -44.4 -7.3 -68.3 -7.9 -2.2 0 11.5 -28.6 19.6 -40.8 7 -10.6 16.9 -23 19.1 -23.9 0.8 -0.2 7 2.2 13.7 5.5 41.7 20.3 74.7 53.5 91.7 91.9 3.3 7.5 6.4 16.3 5.8 16.3 -0.1 0 -2.9 -2.3 -6.2 -5.2z"/>
 </g>
</svg>